<svg width="166" height="172" xmlns="http://www.w3.org/2000/svg">
 <!-- Created with Method Draw - http://github.com/duopixel/Method-Draw/ -->
 <g>
  <title>background</title>
  <rect fill="none" id="canvas_background" height="174" width="168" y="-1" x="-1"/>
  <g display="none" overflow="visible" y="0" x="0" height="100%" width="100%" id="canvasGrid">
   <rect fill="url(#gridpattern)" stroke-width="0" y="0" x="0" height="100%" width="100%"/>
  </g>
 </g>
 <g>
  <title>Layer 1</title>
  <ellipse ry="85" rx="82" id="svg_1" cy="85.75" cx="82.75" stroke-width="1.5" stroke="#000" fill="#fff"/>
  <path id="svg_2" d="m66.43769,140.791557c-3.749522,-1.802125 1.143316,-5.405186 2.995711,-6.999012c1.247745,-1.227452 -7.150919,0.172185 -3.605076,-4.088795c3.890307,-3.480988 2.420754,-9.37005 -1.467869,-12.107506c-5.351557,-3.851224 -12.217947,-7.147334 -14.195008,-14.338619c-1.999103,-4.479132 2.741804,-9.196571 -0.307522,-13.241344c-2.454432,-5.251711 0.413042,-10.728144 2.195384,-15.593038c0.819655,-6.729593 -4.201404,-12.051421 -6.962678,-17.580154c-3.419084,-5.283383 -5.390001,-11.439739 -5.673217,-17.855393c-0.74356,-2.738473 0.079313,-6.991247 3.04849,-3.299232c6.2179,5.306486 13.044109,10.341702 17.395907,17.605001c0.823751,2.623562 4.122204,10.227397 4.306392,3.341691c0.086265,-9.463922 2.798296,-19.785744 9.747663,-26.127772c4.726838,-4.590515 7.276004,3.447292 7.496555,7.531802c1.230308,8.0366 -0.809075,16.006197 -3.08166,23.597857c-0.834289,3.528089 -3.00699,13.196338 3.189581,9.631491c14.274673,-5.873824 31.569498,0.295271 40.867405,12.913488c4.274166,6.109585 6.145977,13.958979 6.103718,21.495722c-2.200862,4.427801 5.976517,-0.082947 3.013433,5.025401c-1.744337,5.658833 -6.672773,8.729381 -10.124998,13.000635c-3.512922,3.422615 -0.90644,10.740311 -6.715796,11.818567c-8.476556,2.785072 -17.377637,4.005037 -26.20203,4.715139c-4.938104,1.078255 -7.334591,-4.939919 -2.601594,-7.441827c2.269128,-3.728242 8.76104,-3.989511 10.689915,-4.580132c-4.609383,0.480677 -10.2939,-1.524474 -14.177985,1.518048c-2.352249,4.06987 -4.236195,9.426703 -9.168888,10.588365c-2.216742,0.65618 -4.495949,1.18239 -6.765828,0.469614l-0.000004,0.000004z" stroke-width="1.5" stroke="#000" fill="#97944B"/>
 </g>
</svg>